# xmcd CD database file
#
# Track frame offsets:
#	150
#	27842
#	48785
#
# Disc length: 814 seconds
#
# Revision: 0
# Processed by: cddbd v1.5PL3 Copyright (c) Steve Scherf et al.
# Submitted via: CDex 1.50Beta7
#
DISCID=18032c03
DTITLE=水原由貴 - LOVE IS PAIN
DYEAR=2000
DGENRE=JPop
TTITLE0=LOVE IS PAIN
TTITLE1=自由に逢えない2人
TTITLE2=SWEET NIGHT SWEET KISS
EXTD=YEAR: 2000
EXTT0=
EXTT1=
EXTT2=
PLAYORDER=
